<svg xmlns="http://www.w3.org/2000/svg" xmlns:xlink="http://www.w3.org/1999/xlink"><defs><symbol viewBox="0 0 24 24" fill="none" id="svg-icon-cart">
<path fill-rule="evenodd" clip-rule="evenodd" d="M5.68638 4.14285L5.35476 2.78357C5.09658 1.73512 4.17153 0.999938 3.11054 1H2V2.57142H3.11054C3.47355 2.56065 3.79474 2.80935 3.88175 3.16856L6.62725 14.5457L6.9126 15.7164C7.17282 16.7734 8.11035 17.5109 9.17995 17.4999H19.7378V15.9285H9.17995C8.81694 15.9393 8.49574 15.6906 8.40874 15.3314L8.3162 14.9385L19.7378 12.1964C20.5822 11.9964 21.246 11.3322 21.4576 10.4757L23 4.14285H5.68638ZM19.9923 10.0985C19.9209 10.3855 19.6973 10.6072 19.4139 10.6721L7.96144 13.4142L6.07198 5.71427H21.0643L19.9923 10.0985ZM5.85604 20.6428C5.85604 19.341 6.89189 18.2857 8.16967 18.2857C9.44745 18.2857 10.4833 19.341 10.4833 20.6428C10.4833 21.9446 9.44745 22.9999 8.16967 22.9999C6.89189 22.9999 5.85604 21.9446 5.85604 20.6428ZM7.39846 20.6428C7.39846 21.0767 7.74374 21.4285 8.16967 21.4285C8.59559 21.4285 8.94087 21.0767 8.94087 20.6428C8.94087 20.2089 8.59559 19.8571 8.16967 19.8571C7.74374 19.8571 7.39846 20.2089 7.39846 20.6428ZM15.2867 19.7408C15.6448 18.86 16.4884 18.2857 17.4242 18.2857C18.7019 18.2857 19.7378 19.341 19.7378 20.6428C19.7378 21.5962 19.1741 22.4557 18.3096 22.8205C17.445 23.1853 16.4499 22.9837 15.7882 22.3095C15.1265 21.6354 14.9285 20.6216 15.2867 19.7408ZM16.653 20.6428C16.653 21.0767 16.9982 21.4285 17.4242 21.4285C17.8501 21.4285 18.1954 21.0767 18.1954 20.6428C18.1954 20.2089 17.8501 19.8571 17.4242 19.8571C16.9982 19.8571 16.653 20.2089 16.653 20.6428Z" fill="var(--main-text)" />
</symbol><symbol viewBox="0 0 176 31" fill="none" id="svg-icon-logo">
<path d="M53.0653 19.3076H46.433L45.0938 22.4112H41.1612L48.1548 7.42478H51.2584L58.2733 22.4112H54.4045L53.0653 19.3076ZM51.8111 16.3741L49.7491 11.5699L47.6872 16.3741H51.8111Z" fill="var(--main-text)" />
<path d="M59.1606 7.42478H63.072V19.2438H69.4492V22.4112H59.1606V7.42478Z" fill="var(--main-text)" />
<path d="M71.3254 7.42478H78.5742C80.2323 7.42478 81.5219 7.84992 82.443 8.70021C83.3642 9.53633 83.8247 10.7055 83.8247 12.2077C83.8247 13.6957 83.3571 14.8648 82.4218 15.7151C81.5006 16.5654 80.2181 16.9906 78.5742 16.9906H75.2368V22.4112H71.3254V7.42478ZM78.0428 14.0571C78.7655 14.0571 79.2969 13.9082 79.6371 13.6106C79.9913 13.313 80.1685 12.8525 80.1685 12.2289C80.1685 11.6054 79.9913 11.1448 79.6371 10.8472C79.2969 10.5354 78.7655 10.3795 78.0428 10.3795H75.2368V14.0571H78.0428Z" fill="var(--main-text)" />
<path d="M99.4862 7.42478V22.4112H95.6599V16.3528H89.5378V22.4112H85.7115V7.42478H89.5378V13.2493H95.6599V7.42478H99.4862Z" fill="var(--main-text)" />
<path d="M112.291 19.3076H105.659L104.319 22.4112H100.387L107.38 7.42478H110.484L117.499 22.4112H113.63L112.291 19.3076ZM111.037 16.3741L108.975 11.5699L106.913 16.3741H111.037Z" fill="var(--main-text)" />
<path d="M129.889 22.6025C128.77 22.6025 127.664 22.4537 126.573 22.1561C125.482 21.8585 124.596 21.4617 123.916 20.9657L125.128 18.2022C125.85 18.6557 126.623 19.0029 127.445 19.2438C128.267 19.4847 129.096 19.6052 129.932 19.6052C130.782 19.6052 131.427 19.4918 131.866 19.2651C132.32 19.0242 132.546 18.6911 132.546 18.266C132.546 17.8834 132.341 17.5716 131.93 17.3307C131.533 17.0898 130.768 16.8488 129.634 16.6079C128.231 16.3103 127.133 15.956 126.339 15.5451C125.546 15.1341 124.986 14.6523 124.66 14.0996C124.348 13.5469 124.192 12.8666 124.192 12.0589C124.192 11.1377 124.447 10.3158 124.958 9.59302C125.482 8.8561 126.212 8.28215 127.147 7.87118C128.097 7.44603 129.181 7.23346 130.399 7.23346C131.476 7.23346 132.518 7.38935 133.524 7.70112C134.545 7.99872 135.338 8.38844 135.905 8.87027L134.715 11.6337C133.354 10.6984 131.923 10.2307 130.421 10.2307C129.698 10.2307 129.117 10.3725 128.678 10.6559C128.238 10.9251 128.019 11.2865 128.019 11.74C128.019 12.0093 128.097 12.2289 128.252 12.399C128.408 12.569 128.699 12.7391 129.124 12.9092C129.549 13.065 130.18 13.228 131.016 13.3981C132.376 13.6957 133.446 14.057 134.226 14.4822C135.005 14.8932 135.558 15.375 135.884 15.9277C136.21 16.4804 136.373 17.1394 136.373 17.9046C136.373 19.3785 135.806 20.5334 134.672 21.3696C133.538 22.1915 131.944 22.6025 129.889 22.6025Z" fill="var(--main-text)" />
<path d="M145.366 11.6975C146.613 11.6975 147.541 12.073 148.151 12.8241C148.76 13.561 149.065 14.6877 149.065 16.204V22.4112H145.281V16.3741C145.281 15.7505 145.168 15.2971 144.941 15.0136C144.728 14.7302 144.402 14.5885 143.963 14.5885C143.396 14.5885 142.943 14.7727 142.602 15.1412C142.277 15.4955 142.114 15.9773 142.114 16.5867V22.4112H138.33V7.42478H142.114V13.2068C142.496 12.7108 142.964 12.3352 143.517 12.0801C144.069 11.825 144.686 11.6975 145.366 11.6975Z" fill="var(--main-text)" />
<path d="M156.472 22.5812C155.324 22.5812 154.311 22.3616 153.432 21.9222C152.568 21.4688 151.895 20.831 151.413 20.0091C150.945 19.1871 150.711 18.2235 150.711 17.1181C150.711 16.0127 150.945 15.0561 151.413 14.2484C151.895 13.4264 152.568 12.7958 153.432 12.3565C154.297 11.9171 155.31 11.6975 156.472 11.6975C157.634 11.6975 158.648 11.9171 159.512 12.3565C160.376 12.7958 161.042 13.4264 161.51 14.2484C161.992 15.0561 162.233 16.0127 162.233 17.1181C162.233 18.2235 161.992 19.1871 161.51 20.0091C161.042 20.831 160.376 21.4688 159.512 21.9222C158.648 22.3616 157.634 22.5812 156.472 22.5812ZM156.472 19.754C157.818 19.754 158.492 18.8754 158.492 17.1181C158.492 15.3608 157.818 14.4822 156.472 14.4822C155.126 14.4822 154.453 15.3608 154.453 17.1181C154.453 18.8754 155.126 19.754 156.472 19.754Z" fill="var(--main-text)" />
<path d="M170.876 11.6975C171.769 11.6975 172.563 11.9313 173.257 12.399C173.966 12.8525 174.511 13.4973 174.894 14.3334C175.291 15.1695 175.489 16.1261 175.489 17.2031C175.489 18.2802 175.291 19.2297 174.894 20.0516C174.511 20.8594 173.973 21.4829 173.278 21.9222C172.584 22.3616 171.783 22.5812 170.876 22.5812C170.21 22.5812 169.594 22.4466 169.027 22.1773C168.474 21.9081 168.042 21.5467 167.73 21.0932V26.2375H163.946V11.9526H167.666V13.2918C167.964 12.7958 168.396 12.4061 168.963 12.1226C169.544 11.8392 170.182 11.6975 170.876 11.6975ZM169.728 19.754C170.38 19.754 170.876 19.5343 171.216 19.095C171.571 18.6557 171.748 18.0251 171.748 17.2031C171.748 16.3387 171.571 15.6797 171.216 15.2262C170.862 14.7585 170.359 14.5247 169.707 14.5247C169.055 14.5247 168.552 14.7515 168.198 15.2049C167.844 15.6584 167.666 16.3103 167.666 17.1606C167.666 17.9967 167.844 18.6415 168.198 19.095C168.552 19.5343 169.062 19.754 169.728 19.754Z" fill="var(--main-text)" />
<path fill-rule="evenodd" clip-rule="evenodd" d="M19.9174 14.3148C19.9174 14.3148 14.1305 23.698 9.38607 23.698C1.08746 23.698 8.82117 5.82257 14.8736 5.82257C19.0969 5.82257 19.9174 14.3148 19.9174 14.3148Z" fill="var(--pink)" />
<path fill-rule="evenodd" clip-rule="evenodd" d="M26.7938 26.1153C25.1452 27.8695 23.1106 29.2156 20.8512 30.0468C18.5917 30.878 16.1697 31.1715 13.7771 30.904C11.3845 30.6364 9.08717 29.8152 7.06723 28.5055C5.04729 27.1958 3.36032 25.4335 2.14008 23.3585C3.51197 25.2244 5.83881 26.4683 9.14749 26.4683C17.2982 26.4683 21.9249 20.1344 21.9249 20.1344C21.9249 20.1344 22.3251 25.1403 26.7837 26.1153H26.7938Z" fill="var(--pink)" />
<path fill-rule="evenodd" clip-rule="evenodd" d="M29.2349 8.32721C30.4548 10.6581 31.0607 13.2613 30.9954 15.8912C30.9301 18.5211 30.1958 21.091 28.8617 23.3584C27.8065 22.7666 27.0263 21.7837 26.6895 20.6218L24.9208 15.3234L29.2349 8.32721Z" fill="var(--secondary-text)" />
<path fill-rule="evenodd" clip-rule="evenodd" d="M15.5025 0.0134609C19.3895 0.010876 23.1349 1.47159 25.9935 4.10493L23.058 8.84189C21.9955 6.07838 19.8368 3.31152 15.637 3.31152C7.03581 3.31152 0.660542 12.7014 0.660542 18.5882C0.658647 19.3495 0.755849 20.1078 0.949711 20.844C0.0895766 18.5013 -0.192161 15.9857 0.128433 13.5108C0.449026 11.0359 1.36248 8.67496 2.79115 6.62867C4.21983 4.58237 6.1215 2.91118 8.33454 1.75714C10.5476 0.603093 13.0066 0.000301095 15.5025 0V0.0134609Z" fill="var(--secondary-text)" />
</symbol><symbol viewBox="0 0 24 24" fill="none" id="svg-icon-moon">
<path d="M10.5 1.5C6.75 1.5 2.25 5.25 2.25 11.25C2.25 17.25 6.75 21.75 12.75 21.75C18.75 21.75 22.5 17.25 22.5 13.5C14.25 18.75 5.25 9.75 10.5 1.5Z" stroke="var(--main-text)" stroke-width="1.5" stroke-linecap="round" stroke-linejoin="round" />
</symbol><symbol viewBox="0 0 24 24" fill="none" id="svg-icon-search">
<path fill-rule="evenodd" clip-rule="evenodd" d="M10.2297 18.4595C5.68458 18.4595 2 14.7749 2 10.2297C2 5.68458 5.68458 2 10.2297 2C14.7749 2 18.4595 5.68458 18.4595 10.2297C18.4595 12.1957 17.7701 14.0006 16.62 15.416L22.7506 21.5467C23.0831 21.8791 23.0831 22.4182 22.7506 22.7506C22.4182 23.0831 21.8791 23.0831 21.5467 22.7506L15.416 16.62C14.0006 17.7701 12.1957 18.4595 10.2297 18.4595ZM10.2297 16.7568C13.8345 16.7568 16.7568 13.8345 16.7568 10.2297C16.7568 6.62495 13.8345 3.7027 10.2297 3.7027C6.62495 3.7027 3.7027 6.62495 3.7027 10.2297C3.7027 13.8345 6.62495 16.7568 10.2297 16.7568Z" fill="var(--main-text)" />
</symbol><symbol viewBox="0 0 24 24" fill="none" id="svg-icon-sun">
<path d="M11.9999 4.20669C12.1767 4.20669 12.3463 4.13645 12.4713 4.01143C12.5963 3.8864 12.6666 3.71683 12.6666 3.54002V1.27336C12.6666 1.09655 12.5963 0.926976 12.4713 0.801952C12.3463 0.676927 12.1767 0.606689 11.9999 0.606689C11.8231 0.606689 11.6535 0.676927 11.5285 0.801952C11.4035 0.926976 11.3333 1.09655 11.3333 1.27336V3.54002C11.3333 3.71683 11.4035 3.8864 11.5285 4.01143C11.6535 4.13645 11.8231 4.20669 11.9999 4.20669Z" fill="var(--main-text)" fill-opacity="0.8" />
<path d="M11.9999 19.7933C11.8231 19.7933 11.6535 19.8636 11.5285 19.9886C11.4035 20.1136 11.3333 20.2832 11.3333 20.46V22.7267C11.3333 22.9035 11.4035 23.073 11.5285 23.1981C11.6535 23.3231 11.8231 23.3933 11.9999 23.3933C12.1767 23.3933 12.3463 23.3231 12.4713 23.1981C12.5963 23.073 12.6666 22.9035 12.6666 22.7267V20.46C12.6666 20.2832 12.5963 20.1136 12.4713 19.9886C12.3463 19.8636 12.1767 19.7933 11.9999 19.7933V19.7933Z" fill="var(--main-text)" fill-opacity="0.8" />
<path d="M5.54668 6.49335C5.67065 6.60603 5.83249 6.66792 6.00001 6.66668C6.08775 6.66719 6.17473 6.65037 6.25595 6.6172C6.33718 6.58402 6.41105 6.53514 6.47335 6.47335C6.53583 6.41137 6.58543 6.33764 6.61928 6.2564C6.65312 6.17516 6.67055 6.08802 6.67055 6.00002C6.67055 5.91201 6.65312 5.82487 6.61928 5.74363C6.58543 5.66239 6.53583 5.58866 6.47335 5.52668L4.88668 3.94668C4.75915 3.83746 4.5951 3.78039 4.42731 3.78687C4.25953 3.79335 4.10037 3.86291 3.98164 3.98164C3.86291 4.10037 3.79335 4.25953 3.78687 4.42731C3.78039 4.5951 3.83746 4.75915 3.94668 4.88668L5.54668 6.49335Z" fill="var(--main-text)" fill-opacity="0.8" />
<path d="M18.4533 17.5067C18.3911 17.4445 18.3173 17.3952 18.2361 17.3616C18.1549 17.3279 18.0678 17.3106 17.9799 17.3106C17.892 17.3106 17.805 17.3279 17.7238 17.3616C17.6426 17.3952 17.5688 17.4445 17.5066 17.5067C17.4444 17.5688 17.3951 17.6426 17.3615 17.7238C17.3279 17.8051 17.3105 17.8921 17.3105 17.98C17.3105 18.0679 17.3279 18.155 17.3615 18.2362C17.3951 18.3174 17.4444 18.3912 17.5066 18.4533L19.1133 20.0533C19.175 20.1163 19.2486 20.1664 19.3299 20.2008C19.4111 20.2351 19.4984 20.253 19.5866 20.2533C19.7625 20.2508 19.9302 20.1789 20.0533 20.0533C20.1774 19.9284 20.2471 19.7595 20.2471 19.5833C20.2471 19.4072 20.1774 19.2382 20.0533 19.1133L18.4533 17.5067Z" fill="var(--main-text)" fill-opacity="0.8" />
<path d="M4.20669 12C4.20669 11.8232 4.13645 11.6536 4.01143 11.5286C3.8864 11.4036 3.71683 11.3333 3.54002 11.3333H1.27336C1.09655 11.3333 0.926976 11.4036 0.801952 11.5286C0.676927 11.6536 0.606689 11.8232 0.606689 12C0.606689 12.1768 0.676927 12.3464 0.801952 12.4714C0.926976 12.5964 1.09655 12.6666 1.27336 12.6666H3.54002C3.71683 12.6666 3.8864 12.5964 4.01143 12.4714C4.13645 12.3464 4.20669 12.1768 4.20669 12Z" fill="var(--main-text)" fill-opacity="0.8" />
<path d="M22.7265 11.3333H20.4599C20.2831 11.3333 20.1135 11.4036 19.9885 11.5286C19.8635 11.6536 19.7932 11.8232 19.7932 12C19.7932 12.1768 19.8635 12.3464 19.9885 12.4714C20.1135 12.5964 20.2831 12.6666 20.4599 12.6666H22.7265C22.9034 12.6666 23.0729 12.5964 23.198 12.4714C23.323 12.3464 23.3932 12.1768 23.3932 12C23.3932 11.8232 23.323 11.6536 23.198 11.5286C23.0729 11.4036 22.9034 11.3333 22.7265 11.3333Z" fill="var(--main-text)" fill-opacity="0.8" />
<path d="M5.54672 17.5067L3.94672 19.1133C3.8531 19.2062 3.78912 19.3247 3.76286 19.4539C3.73661 19.5831 3.74925 19.7172 3.7992 19.8392C3.84916 19.9613 3.93417 20.0657 4.04349 20.1394C4.15281 20.2131 4.28153 20.2528 4.41338 20.2533C4.50159 20.253 4.58884 20.2351 4.67009 20.2008C4.75134 20.1664 4.82497 20.1163 4.88672 20.0533L6.49338 18.4533C6.61892 18.3278 6.68944 18.1575 6.68944 17.98C6.68944 17.8025 6.61892 17.6322 6.49338 17.5067C6.36785 17.3811 6.19758 17.3106 6.02005 17.3106C5.84252 17.3106 5.67225 17.3811 5.54672 17.5067V17.5067Z" fill="var(--main-text)" fill-opacity="0.8" />
<path d="M18.0001 6.66665C18.0879 6.66716 18.1748 6.65034 18.2561 6.61716C18.3373 6.58399 18.4112 6.5351 18.4735 6.47332L20.0735 4.86665C20.1976 4.74174 20.2673 4.57277 20.2673 4.39665C20.2673 4.22053 20.1976 4.05156 20.0735 3.92665C19.9485 3.80248 19.7796 3.73279 19.6035 3.73279C19.4273 3.73279 19.2584 3.80248 19.1335 3.92665L17.5268 5.52665C17.4643 5.58862 17.4147 5.66236 17.3809 5.7436C17.347 5.82484 17.3296 5.91197 17.3296 5.99998C17.3296 6.08799 17.347 6.17513 17.3809 6.25637C17.4147 6.33761 17.4643 6.41134 17.5268 6.47332C17.5891 6.5351 17.663 6.58399 17.7442 6.61716C17.8254 6.65034 17.9124 6.66716 18.0001 6.66665Z" fill="var(--main-text)" fill-opacity="0.8" />
<path d="M12.0866 5.16669C10.7473 5.14951 9.43324 5.53092 8.31132 6.26246C7.18939 6.994 6.31033 8.04262 5.78587 9.27502C5.26141 10.5074 5.11525 11.8679 5.36596 13.1836C5.61666 14.4993 6.25292 15.7107 7.19385 16.6639C8.13478 17.617 9.33788 18.2689 10.6502 18.5366C11.9625 18.8042 13.3248 18.6757 14.5639 18.1672C15.803 17.6587 16.8628 16.7932 17.6088 15.6808C18.3548 14.5684 18.7531 13.2594 18.7533 11.92C18.7621 10.1412 18.0654 8.43144 16.8157 7.16551C15.566 5.89958 13.8654 5.18079 12.0866 5.16669V5.16669ZM12.0866 17.3334C11.0108 17.3506 9.95424 17.0472 9.05145 16.4619C8.14866 15.8766 7.4405 15.0359 7.01714 14.0467C6.59379 13.0576 6.4744 11.9648 6.67418 10.9076C6.87396 9.85043 7.38387 8.8766 8.13898 8.11017C8.89409 7.34374 9.86022 6.81938 10.9143 6.60388C11.9685 6.38839 13.0629 6.49149 14.0582 6.90007C15.0535 7.30866 15.9047 8.00423 16.5034 8.8982C17.102 9.79218 17.4211 10.8441 17.4199 11.92C17.427 13.3441 16.87 14.713 15.8705 15.7274C14.8711 16.7419 13.5106 17.3193 12.0866 17.3334V17.3334Z" fill="var(--main-text)" fill-opacity="0.8" />
</symbol><symbol viewBox="0 0 24 24" fill="none" id="svg-icon-toggle">
<path d="M2 10.25H17V12.75H2V10.25ZM2 4H22V6.5H2V4ZM2 19H11.0437V16.5H2V19Z" fill="var(--main-text)" />
</symbol></defs></svg>